<svg width="34" height="12" viewBox="0 0 34 12" fill="none" xmlns="http://www.w3.org/2000/svg">
<path d="M6.79 3.356V1.2H0.84V11H3.08V7.402H6.72V5.246H3.08V3.356H6.79ZM8.04344 11H10.1434V0.78H8.04344V11ZM15.0402 11.196C17.0982 11.196 18.7502 9.586 18.7502 7.5C18.7502 5.414 17.0982 3.804 15.0402 3.804C12.9822 3.804 11.3302 5.414 11.3302 7.5C11.3302 9.586 12.9822 11.196 15.0402 11.196ZM15.0402 9.152C14.1302 9.152 13.4302 8.494 13.4302 7.5C13.4302 6.506 14.1302 5.848 15.0402 5.848C15.9502 5.848 16.6502 6.506 16.6502 7.5C16.6502 8.494 15.9502 9.152 15.0402 9.152ZM24.1305 4L22.6745 8.438L21.2185 4H18.8945L21.4845 11H23.8645L26.4545 4H24.1305ZM28.2751 3.384C28.9611 3.384 29.5351 2.81 29.5351 2.124C29.5351 1.438 28.9611 0.863999 28.2751 0.863999C27.5891 0.863999 27.0151 1.438 27.0151 2.124C27.0151 2.81 27.5891 3.384 28.2751 3.384ZM27.2251 11H29.3251V4H27.2251V11Z" fill="white"/>
<path d="M32.0518 11.196C32.7798 11.196 33.3818 10.594 33.3818 9.866C33.3818 9.138 32.7798 8.536 32.0518 8.536C31.3238 8.536 30.7218 9.138 30.7218 9.866C30.7218 10.594 31.3238 11.196 32.0518 11.196Z" fill="#7DA259"/>
</svg>
